<svg xmlns="http://www.w3.org/2000/svg" viewBox="0 0 512 512" role="img" aria-labelledby="title desc">
  <title id="title">ShopFlow DZ</title>
  <desc id="desc">Icône ShopFlow DZ avec sac de shopping et coche</desc>
  <defs>
    <linearGradient id="bg" x1="0" y1="0" x2="1" y2="1">
      <stop offset="0" stop-color="#07132d"/>
      <stop offset="1" stop-color="#0f1b33"/>
    </linearGradient>
    <linearGradient id="accent" x1="0" y1="0" x2="1" y2="1">
      <stop offset="0" stop-color="#00e5ff"/>
      <stop offset="1" stop-color="#00c4a4"/>
    </linearGradient>
    <filter id="shadow" x="-20%" y="-20%" width="140%" height="140%">
      <feDropShadow dx="0" dy="14" stdDeviation="12" flood-color="#000814" flood-opacity="0.35"/>
    </filter>
  </defs>
  <rect width="512" height="512" rx="120" fill="url(#bg)"/>
  <circle cx="256" cy="244" r="172" fill="#ffffff" opacity="0.06"/>
  <g filter="url(#shadow)">
    <path d="M198 127c0-41 27-69 67-69s67 28 67 69v34h-37v-34c0-22-12-36-30-36s-30 14-30 36v34h-37v-34Z" fill="#ffffff"/>
    <path d="M151 161h222c22 0 41 18 43 40l17 145c4 28-19 53-47 53H139c-28 0-51-25-47-53l17-145c2-22 20-40 42-40Z" fill="#ffffff"/>
    <path d="M209 279l39 39 91-97" fill="none" stroke="#07132d" stroke-width="34" stroke-linecap="round" stroke-linejoin="round"/>
    <rect x="74" y="209" width="116" height="25" rx="13" fill="url(#accent)"/>
    <rect x="104" y="263" width="116" height="25" rx="13" fill="url(#accent)"/>
    <rect x="74" y="317" width="116" height="25" rx="13" fill="url(#accent)"/>
  </g>
  <text x="256" y="463" text-anchor="middle" font-family="Poppins, Inter, Arial, sans-serif" font-size="44" font-weight="800" fill="#ffffff">ShopFlow DZ</text>
</svg>
