<svg xmlns="http://www.w3.org/2000/svg" viewBox="0 0 720 220" role="img" aria-labelledby="title desc">
  <title id="title">ShopFlow DZ</title>
  <desc id="desc">Logo ShopFlow DZ avec sac de shopping et coche</desc>
  <defs>
    <linearGradient id="sfGradient" x1="0" y1="0" x2="1" y2="1">
      <stop offset="0" stop-color="#00e5ff"/>
      <stop offset="1" stop-color="#00c4a4"/>
    </linearGradient>
    <filter id="shadow" x="-20%" y="-20%" width="140%" height="140%">
      <feDropShadow dx="0" dy="8" stdDeviation="8" flood-color="#00112b" flood-opacity="0.22"/>
    </filter>
  </defs>
  <rect width="720" height="220" rx="44" fill="#ffffff"/>
  <g transform="translate(42 34)" filter="url(#shadow)">
    <path d="M82 42c0-25 16-42 40-42s40 17 40 42v20h-22V42c0-13-7-21-18-21s-18 8-18 21v20H82V42Z" fill="#07132d"/>
    <path d="M56 62h132c13 0 24 10 25 23l10 86c2 16-11 30-27 30H48c-16 0-29-14-27-30l10-86c1-13 12-23 25-23Z" fill="#07132d"/>
    <path d="M70 78h106c10 0 18 7 19 17l8 68c1 9-6 17-15 17H58c-9 0-16-8-15-17l8-68c1-10 9-17 19-17Z" fill="#ffffff"/>
    <path d="M91 130l25 25 55-59" fill="none" stroke="#07132d" stroke-width="15" stroke-linecap="round" stroke-linejoin="round"/>
    <rect x="0" y="88" width="70" height="13" rx="7" fill="url(#sfGradient)"/>
    <rect x="18" y="116" width="70" height="13" rx="7" fill="url(#sfGradient)"/>
    <rect x="0" y="144" width="70" height="13" rx="7" fill="url(#sfGradient)"/>
  </g>
  <g transform="translate(300 54)">
    <text x="0" y="64" font-family="Poppins, Inter, Arial, sans-serif" font-size="64" font-weight="800" fill="#07132d">Shop</text>
    <text x="166" y="64" font-family="Poppins, Inter, Arial, sans-serif" font-size="64" font-weight="800" fill="#00c4b4">Flow</text>
    <text x="70" y="126" font-family="Poppins, Inter, Arial, sans-serif" font-size="54" font-weight="800" fill="#07132d">DZ</text>
    <rect x="0" y="142" width="112" height="8" rx="4" fill="url(#sfGradient)"/>
    <rect x="154" y="142" width="112" height="8" rx="4" fill="url(#sfGradient)"/>
  </g>
</svg>
