<svg xmlns="http://www.w3.org/2000/svg" viewBox="0 0 760 220" role="img" aria-label="ShopFlow DZ">
  <defs>
    <linearGradient id="sf-a" x1="0" y1="0" x2="1" y2="1">
      <stop offset="0" stop-color="#00E5FF"/>
      <stop offset="1" stop-color="#00C4B4"/>
    </linearGradient>
    <filter id="sf-shadow" x="-20%" y="-20%" width="140%" height="140%">
      <feDropShadow dx="0" dy="12" stdDeviation="10" flood-color="#07142B" flood-opacity="0.22"/>
    </filter>
  </defs>
  <rect width="760" height="220" rx="34" fill="none"/>
  <g transform="translate(28 34)" filter="url(#sf-shadow)">
    <path d="M89 38c0-26 19-42 44-42s44 16 44 42v19h-22V38c0-13-9-22-22-22s-22 9-22 22v19H89V38Z" fill="#07142B"/>
    <rect x="62" y="50" width="124" height="128" rx="22" fill="#FFFFFF"/>
    <rect x="84" y="72" width="124" height="128" rx="22" fill="#F5F8FC" opacity="0.92"/>
    <path d="M119 134l25 25 55-65" fill="none" stroke="#07142B" stroke-width="16" stroke-linecap="round" stroke-linejoin="round"/>
    <path d="M0 88h78M18 116h66M36 144h48" stroke="url(#sf-a)" stroke-width="16" stroke-linecap="round"/>
  </g>
  <g transform="translate(265 49)">
    <text x="0" y="64" font-family="Poppins, Inter, Arial, sans-serif" font-size="66" font-weight="800" fill="#07142B">Shop</text>
    <text x="160" y="64" font-family="Poppins, Inter, Arial, sans-serif" font-size="66" font-weight="800" fill="url(#sf-a)">Flow</text>
    <line x1="4" y1="89" x2="118" y2="89" stroke="url(#sf-a)" stroke-width="8" stroke-linecap="round"/>
    <text x="139" y="113" font-family="Poppins, Inter, Arial, sans-serif" font-size="52" font-weight="800" fill="#07142B">DZ</text>
    <line x1="232" y1="89" x2="348" y2="89" stroke="url(#sf-a)" stroke-width="8" stroke-linecap="round"/>
  </g>
</svg>
